<?xml version="1.0" encoding="iso-8859-1"?>
<!-- Generator: Adobe Illustrator 17.1.0, SVG Export Plug-In . SVG Version: 6.00 Build 0)  -->
<!DOCTYPE svg PUBLIC "-//W3C//DTD SVG 1.1//EN" "http://www.w3.org/Graphics/SVG/1.1/DTD/svg11.dtd">
<svg version="1.1" id="Capa_1" xmlns="http://www.w3.org/2000/svg" xmlns:xlink="http://www.w3.org/1999/xlink" x="0px" y="0px"
	 viewBox="0 0 425.736 425.736" style="enable-background:new 0 0 425.736 425.736;" xml:space="preserve">
<path d="M171.653,325.864c0,5.523-4.477,10-10,10h-37.907c-5.523,0-10-4.477-10-10s4.477-10,10-10h37.907
	C167.176,315.864,171.653,320.341,171.653,325.864z M235.747,136.836h37.907c5.523,0,10-4.477,10-10c0-5.523-4.477-10-10-10h-37.907
	c-5.523,0-10,4.477-10,10C225.747,132.359,230.225,136.836,235.747,136.836z M235.747,179.192h37.907c5.523,0,10-4.477,10-10
	s-4.477-10-10-10h-37.907c-5.523,0-10,4.477-10,10S230.225,179.192,235.747,179.192z M192.318,201.107h-68.572
	c-5.523,0-10,4.477-10,10s4.477,10,10,10h68.572c5.523,0,10-4.477,10-10S197.841,201.107,192.318,201.107z M191.668,273.717h-67.923
	c-5.523,0-10,4.477-10,10s4.477,10,10,10h67.923c5.523,0,10-4.477,10-10S197.191,273.717,191.668,273.717z M372.002,289.14v65.239
	c0,39.346-32.011,71.356-71.357,71.356c-18.62,0-35.597-7.168-48.316-18.89H63.734c-5.523,0-10-4.477-10-10V10.001
	c0-5.523,4.477-10,10-10h201.28c2.594-0.033,5.161,0.973,7.087,2.863c0.001,0.001,0.002,0.002,0.003,0.003
	c0.006,0.006,0.013,0.012,0.019,0.019c0.004,0.004,0.009,0.009,0.013,0.013c0.003,0.003,0.006,0.006,0.009,0.009
	c0.007,0.007,0.015,0.015,0.022,0.022l68.572,68.572c0.006,0.007,0.013,0.014,0.02,0.021c0.001,0.001,0.003,0.003,0.005,0.005
	c0.005,0.005,0.011,0.011,0.017,0.017c0.001,0.001,0.002,0.002,0.003,0.004c1.402,1.419,2.314,3.188,2.689,5.064
	c0,0,0,0.001,0,0.001c0.004,0.02,0.008,0.04,0.012,0.059v0.001c0.002,0.01,0.004,0.019,0.006,0.029v0.001
	c0.122,0.642,0.182,1.296,0.176,1.953v197.619c6.775,0.816,13.488,1.825,20.118,3.026
	C368.543,280.163,372.002,284.305,372.002,289.14z M275.096,68.573h34.43l-34.43-34.43V68.573z M229.287,354.38V289.14
	c0-4.835,3.459-8.978,8.217-9.84c20.456-3.707,41.699-5.586,63.14-5.586c7.71,0,15.394,0.243,23.024,0.727V88.573h-58.572
	c-5.523,0-10-4.477-10-10V20.001H73.734v366.846H237.11C232.109,377.101,229.287,366.065,229.287,354.38z M352.002,297.602
	c-16.733-2.582-33.97-3.888-51.359-3.888c-17.388,0-34.625,1.306-51.357,3.888v56.777c0,28.318,23.039,51.356,51.357,51.356
	c28.319,0,51.359-23.039,51.359-51.356V297.602z M290.643,322.413v17.312h-17.31c-5.523,0-10,4.477-10,10s4.477,10,10,10h17.31
	v17.313c0,5.523,4.477,10,10,10s10-4.477,10-10v-17.313h17.314c5.523,0,10-4.477,10-10s-4.477-10-10-10h-17.314v-17.312
	c0-5.523-4.477-10-10-10S290.643,316.89,290.643,322.413z M273.654,221.107c5.523,0,10-4.477,10-10s-4.477-10-10-10h-37.907
	c-5.523,0-10,4.477-10,10s4.477,10,10,10H273.654z M192.318,159.192h-68.572c-5.523,0-10,4.477-10,10s4.477,10,10,10h68.572
	c5.523,0,10-4.477,10-10S197.841,159.192,192.318,159.192z M192.318,116.836h-68.572c-5.523,0-10,4.477-10,10
	c0,5.523,4.477,10,10,10h68.572c5.523,0,10-4.477,10-10C202.318,121.313,197.841,116.836,192.318,116.836z"/>
<g>
</g>
<g>
</g>
<g>
</g>
<g>
</g>
<g>
</g>
<g>
</g>
<g>
</g>
<g>
</g>
<g>
</g>
<g>
</g>
<g>
</g>
<g>
</g>
<g>
</g>
<g>
</g>
<g>
</g>
</svg>
